<svg width="98" height="46" viewBox="0 0 98 46" fill="none" xmlns="http://www.w3.org/2000/svg">
  <g clip-path="url(#clip0_1_843)">
    <path d="M85.8245 25.6803H77.2041H72.6265V22.8757C72.6265 21.1516 72.398 19.553 71.9386 18.0775C71.4792 16.602 70.7842 15.3101 69.8489 14.1994C68.9159 13.0888 67.745 12.236 66.3385 11.6365C64.932 11.037 63.264 10.7373 61.3392 10.7373H55.5719L56.3187 9.33384C56.5849 8.83659 56.8582 8.33237 57.1409 7.82119C57.4213 7.31 57.777 6.71051 58.2082 6.02505C58.637 5.3396 59.2071 4.48452 59.9186 3.46214L53.4775 0C52.6788 1.19897 52.0262 2.19114 51.522 2.98116C51.0179 3.76885 50.6173 4.41946 50.3229 4.93065C50.026 5.44183 49.7739 5.88796 49.5666 6.26671L47.0787 10.8674L51.522 17.1341H61.3416C62.1402 17.1341 62.814 17.3084 63.363 17.6592C63.9096 18.0101 64.3171 18.5956 64.5857 19.4112C64.8519 20.2291 64.9862 21.3839 64.9862 22.8734V25.6779H40.4585V10.0356H32.8159V32.6928C32.8159 34.2125 32.5261 35.3719 31.9489 36.1759C31.3717 36.9798 30.5777 37.3818 29.5717 37.3818C29.3644 37.3818 29.0299 37.3749 28.5728 37.3609C28.1134 37.347 27.6187 37.34 27.0839 37.34L26.9496 43.6067C27.482 43.6648 27.9862 43.709 28.4597 43.7392C28.9333 43.767 29.3338 43.7833 29.6589 43.7833C31.8217 43.7833 33.7088 43.3093 35.3249 42.3589C36.9388 41.4086 38.1968 40.0935 39.1015 38.4158C40.0038 36.7359 40.4562 34.8282 40.4562 32.6975V32.0841H77.2018H93.4648V10.0356H85.8221V25.6803H85.8245Z" fill="#010B11"/>
    <path d="M88.5786 0.174271H81.2917V5.91585H88.5786V0.174271Z" fill="#010B11"/>
    <path d="M97.9976 0.174271H90.7555V5.91585H97.9976V0.174271Z" fill="#010B11"/>
    <path d="M25.7928 17.4501C25.6303 16.3836 25.3099 15.3752 24.8363 14.4271C24.3628 13.4768 23.6678 12.6217 22.7489 11.8619C21.8301 11.1044 20.631 10.5049 19.1491 10.0658C17.6672 9.62893 15.8178 9.40819 13.5961 9.40819C11.8174 9.40819 10.1376 9.52669 8.55206 9.75905C6.96651 9.99373 5.76027 10.2702 4.93098 10.5909C4.75429 11.2345 4.5611 12.1035 4.35378 13.2003C4.14645 14.2947 3.9674 15.5146 3.82133 16.8576C3.67055 18.203 3.59752 19.5901 3.59752 21.0215C3.59752 22.4528 3.65642 23.747 3.77657 24.9878C3.87552 26.0311 4.00038 26.9652 4.15352 27.7901C3.10042 28.6475 2.23579 29.6861 1.55492 30.9037C0.515951 32.7579 0 34.9421 0 37.4562C0 38.6528 0.110729 39.9982 0.332187 41.4876C0.553646 42.977 0.798663 44.4804 1.06488 46H8.57562C8.33767 44.1016 8.12328 42.4588 7.93009 41.0717C7.7369 39.6822 7.64267 38.4785 7.64267 37.4562C7.64267 36.1108 7.80287 35.0373 8.13035 34.2334C8.45547 33.4317 8.87718 32.8322 9.39549 32.4372C9.91379 32.0422 10.4557 31.7797 11.0187 31.6495C11.5818 31.5171 12.1001 31.452 12.5736 31.452H26.0378V20.6265C26.0378 19.5762 25.9554 18.5166 25.7928 17.4501Z" fill="#010B11"/>
  </g>
  <defs>
    <clipPath id="clip0_1_843">
      <rect width="98" height="46" fill="white"/>
    </clipPath>
  </defs>
</svg>
