<svg width="19" height="17" viewBox="0 0 19 17" fill="none" xmlns="http://www.w3.org/2000/svg">
  <path d="M16.5123 2.48771C16.1071 2.08235 15.626 1.76079 15.0966 1.5414C14.5671 1.32202 13.9996 1.2091 13.4265 1.2091C12.8533 1.2091 12.2858 1.32202 11.7563 1.5414C11.2269 1.76079 10.7458 2.08235 10.3406 2.48771L9.49978 3.32857L8.65891 2.48771C7.8405 1.6693 6.7305 1.20952 5.5731 1.20952C4.41569 1.20952 3.30569 1.6693 2.48728 2.48771C1.66887 3.30612 1.2091 4.41612 1.2091 5.57352C1.2091 6.73093 1.66887 7.84093 2.48728 8.65934L3.32815 9.5002L9.49978 15.6718L15.6714 9.5002L16.5123 8.65934C16.9176 8.25417 17.2392 7.77311 17.4586 7.24363C17.678 6.71416 17.7909 6.14665 17.7909 5.57352C17.7909 5.0004 17.678 4.43288 17.4586 3.90341C17.2392 3.37394 16.9176 2.89287 16.5123 2.48771Z" stroke="#FEFEFE" stroke-width="2.34083" stroke-linecap="round" stroke-linejoin="round"/>
</svg>
