<svg width="30" height="30" viewBox="0 0 30 30" fill="none" xmlns="http://www.w3.org/2000/svg"><path d="M19.375 17.8125C19.375 18.6755 18.6755 19.375 17.8125 19.375C16.9495 19.375 16.25 18.6755 16.25 17.8125C16.25 16.9495 16.9495 16.25 17.8125 16.25C18.6755 16.25 19.375 16.9495 19.375 17.8125Z" stroke="#1C274C"/><path d="M19.375 12.1875C19.375 13.0505 18.6755 13.75 17.8125 13.75C16.9495 13.75 16.25 13.0505 16.25 12.1875C16.25 11.3245 16.9495 10.625 17.8125 10.625C18.6755 10.625 19.375 11.3245 19.375 12.1875Z" stroke="#1C274C"/><path d="M13.75 17.8125C13.75 18.6755 13.0505 19.375 12.1875 19.375C11.3245 19.375 10.625 18.6755 10.625 17.8125C10.625 16.9495 11.3245 16.25 12.1875 16.25C13.0505 16.25 13.75 16.9495 13.75 17.8125Z" stroke="#1C274C"/><path d="M13.75 12.1875C13.75 13.0505 13.0505 13.75 12.1875 13.75C11.3245 13.75 10.625 13.0505 10.625 12.1875C10.625 11.3245 11.3245 10.625 12.1875 10.625C13.0505 10.625 13.75 11.3245 13.75 12.1875Z" stroke="#1C274C"/><path d="M18.25 22.8125C18.25 23.0541 18.0541 23.25 17.8125 23.25C17.5709 23.25 17.375 23.0541 17.375 22.8125C17.375 22.5709 17.5709 22.375 17.8125 22.375C18.0541 22.375 18.25 22.5709 18.25 22.8125Z" stroke="#1C274C"/><path d="M12.625 22.8C12.625 23.0416 12.4291 23.2375 12.1875 23.2375C11.9459 23.2375 11.75 23.0416 11.75 22.8C11.75 22.5584 11.9459 22.3625 12.1875 22.3625C12.4291 22.3625 12.625 22.5584 12.625 22.8Z" stroke="#1C274C"/><path d="M18.25 22.8C18.25 23.0416 18.0541 23.2375 17.8125 23.2375C17.5709 23.2375 17.375 23.0416 17.375 22.8C17.375 22.5584 17.5709 22.3625 17.8125 22.3625C18.0541 22.3625 18.25 22.5584 18.25 22.8Z" stroke="#1C274C"/><path d="M18.25 7.20001C18.25 7.44163 18.0541 7.63751 17.8125 7.63751C17.5709 7.63751 17.375 7.44163 17.375 7.20001C17.375 6.9584 17.5709 6.76251 17.8125 6.76251C18.0541 6.76251 18.25 6.9584 18.25 7.20001Z" stroke="#1C274C"/><path d="M12.625 7.20001C12.625 7.44163 12.4291 7.63751 12.1875 7.63751C11.9459 7.63751 11.75 7.44163 11.75 7.20001C11.75 6.95839 11.9459 6.76251 12.1875 6.76251C12.4291 6.76251 12.625 6.9584 12.625 7.20001Z" stroke="#1C274C"/><path d="M22.8125 11.7625C23.0541 11.7625 23.25 11.9584 23.25 12.2C23.25 12.4416 23.0541 12.6375 22.8125 12.6375C22.5709 12.6375 22.375 12.4416 22.375 12.2C22.375 11.9584 22.5709 11.7625 22.8125 11.7625Z" stroke="#1C274C"/><path d="M7.1875 11.75C7.42912 11.75 7.625 11.9459 7.625 12.1875C7.625 12.4291 7.42912 12.625 7.1875 12.625C6.94588 12.625 6.75 12.4291 6.75 12.1875C6.75 11.9459 6.94588 11.75 7.1875 11.75Z" stroke="#1C274C"/><path d="M22.8 17.3875C23.0417 17.3875 23.2375 17.5834 23.2375 17.825C23.2375 18.0666 23.0417 18.2625 22.8 18.2625C22.5584 18.2625 22.3625 18.0666 22.3625 17.825C22.3625 17.5834 22.5584 17.3875 22.8 17.3875Z" stroke="#1C274C"/><path d="M7.1875 17.375C7.42912 17.375 7.625 17.5709 7.625 17.8125C7.625 18.0541 7.42912 18.25 7.1875 18.25C6.94588 18.25 6.75 18.0541 6.75 17.8125C6.75 17.5709 6.94588 17.375 7.1875 17.375Z" stroke="#1C274C"/><path d="M8.75 4.17227C10.5886 3.10871 12.7232 2.5 15 2.5C21.9035 2.5 27.5 8.09644 27.5 15C27.5 21.9035 21.9035 27.5 15 27.5C8.09644 27.5 2.5 21.9035 2.5 15C2.5 12.7232 3.10871 10.5886 4.17227 8.75" stroke="#1C274C" stroke-linecap="round"/></svg>