<svg width="24" height="12" viewBox="0 0 24 12" fill="none" xmlns="http://www.w3.org/2000/svg">
  <path d="M21.0855 6.51326H18.9743H17.8533V5.80194C17.8533 5.36466 17.7973 4.9592 17.6848 4.58498C17.5723 4.21076 17.4021 3.88309 17.173 3.60139C16.9445 3.31969 16.6578 3.10341 16.3133 2.95136C15.9689 2.79931 15.5604 2.72329 15.089 2.72329H13.6765L13.8594 2.36733C13.9246 2.24122 13.9916 2.11333 14.0608 1.98368C14.1294 1.85403 14.2166 1.70198 14.3222 1.52813C14.4272 1.35428 14.5668 1.13741 14.741 0.8781L13.1636 0C12.968 0.304094 12.8082 0.555737 12.6847 0.756109C12.5612 0.955892 12.4631 1.1209 12.391 1.25056C12.3183 1.38021 12.2566 1.49336 12.2058 1.58942L11.5965 2.75629L12.6847 4.34571H15.0895C15.2851 4.34571 15.4502 4.38991 15.5846 4.4789C15.7184 4.56789 15.8183 4.7164 15.884 4.92325C15.9492 5.1307 15.9821 5.4236 15.9821 5.80136V6.51268H9.9752V2.54531H8.10349V8.29186C8.10349 8.67728 8.03252 8.97136 7.89116 9.17526C7.7498 9.37917 7.55536 9.48113 7.30899 9.48113C7.25821 9.48113 7.17628 9.47936 7.06435 9.47582C6.95184 9.47229 6.83067 9.47052 6.6997 9.47052L6.66681 11.0599C6.79721 11.0747 6.92068 11.0859 7.03665 11.0935C7.15263 11.1006 7.25071 11.1047 7.33033 11.1047C7.86 11.1047 8.32216 10.9845 8.71797 10.7435C9.1132 10.5024 9.4213 10.1689 9.64286 9.74338C9.86385 9.31729 9.97463 8.83345 9.97463 8.29304V8.13746H18.9738H22.9566V2.54531H21.0849V6.51326H21.0855Z" fill="#30A6FA"/>
</svg>
