
<svg width="25" height="25" viewBox="0 0 25 25" fill="none" xmlns="http://www.w3.org/2000/svg"><path d="M3.15528 13.6225C2.81583 12.9123 2.81583 12.0867 3.15528 11.3764C3.30205 11.0694 3.55232 10.7757 4.05288 10.1884C4.25209 9.95459 4.35171 9.83771 4.43538 9.71287C4.62718 9.42671 4.76029 9.10534 4.82701 8.76737C4.85613 8.61994 4.86833 8.46685 4.89277 8.16068C4.95416 7.39141 4.98485 7.00677 5.0982 6.68586C5.36035 5.94365 5.94417 5.35984 6.68639 5.09768C7.00728 4.98433 7.39193 4.95364 8.1612 4.89225C8.46738 4.86782 8.62046 4.8556 8.7679 4.82649C9.10586 4.75977 9.42723 4.62666 9.71339 4.43485C9.83823 4.35119 9.95511 4.25157 10.1889 4.05235C10.7763 3.5518 11.0699 3.30153 11.377 3.15477C12.0872 2.81531 12.9128 2.81531 13.623 3.15477C13.9301 3.30153 14.2238 3.5518 14.8111 4.05235C15.0449 4.25157 15.1618 4.35119 15.2867 4.43485C15.5728 4.62666 15.8942 4.75977 16.2321 4.82649C16.3796 4.8556 16.5326 4.86782 16.8389 4.89225C17.6081 4.95364 17.9927 4.98433 18.3136 5.09768C19.0558 5.35984 19.6397 5.94365 19.9019 6.68586M5.0982 18.3131C5.36035 19.0553 5.94417 19.6392 6.68639 19.9013C7.00728 20.0147 7.39193 20.0453 8.1612 20.1068C8.46738 20.1311 8.62046 20.1434 8.7679 20.1725C9.10586 20.2393 9.42723 20.3723 9.71339 20.5642C9.83822 20.6478 9.95511 20.7474 10.1889 20.9467C10.7763 21.4472 11.0699 21.6975 11.377 21.8443C12.0872 22.1836 12.9128 22.1836 13.623 21.8443C13.9301 21.6975 14.2238 21.4472 14.8111 20.9467C15.0449 20.7474 15.1618 20.6478 15.2867 20.5642C15.5728 20.3723 15.8942 20.2393 16.2321 20.1725C16.3796 20.1434 16.5326 20.1311 16.8389 20.1068C17.6081 20.0453 17.9927 20.0147 18.3136 19.9013C19.0558 19.6392 19.6397 19.0553 19.9019 18.3131C20.0152 17.9922 20.0458 17.6076 20.1073 16.8383C20.1317 16.5322 20.1439 16.3791 20.173 16.2317C20.2397 15.8936 20.3728 15.5723 20.5647 15.2861C20.6483 15.1612 20.7479 15.0444 20.9472 14.8106C21.4477 14.2232 21.698 13.9296 21.8448 13.6225C22.1842 12.9123 22.1842 12.0867 21.8448 11.3764" stroke="#1C274C" stroke-linecap="round"/><path d="M9.375 15.625L15.625 9.375" stroke="#1C274C" stroke-linecap="round"/><path d="M15.6458 15.1042C15.6458 15.4033 15.4033 15.6458 15.1042 15.6458C14.805 15.6458 14.5625 15.4033 14.5625 15.1042C14.5625 14.805 14.805 14.5625 15.1042 14.5625C15.4033 14.5625 15.6458 14.805 15.6458 15.1042Z" stroke="#1C274C"/><path d="M10.4375 9.89582C10.4375 10.195 10.195 10.4375 9.89585 10.4375C9.5967 10.4375 9.35419 10.195 9.35419 9.89582C9.35419 9.59667 9.5967 9.35416 9.89585 9.35416C10.195 9.35416 10.4375 9.59667 10.4375 9.89582Z" stroke="#1C274C"/></svg>